<svg xmlns="http://www.w3.org/2000/svg" viewBox="0 0 256 256">
    <defs><linearGradient id="rg" x1="0" y1="0" x2="0" y2="1"><stop offset="0" stop-color="#26262a"/><stop offset="1" stop-color="#050506"/></linearGradient>
    <clipPath id="rc"><rect x="16" y="16" width="224" height="224" rx="56"/></clipPath></defs>
    <rect x="16" y="16" width="224" height="224" rx="56" fill="url(#rg)"/><circle cx="128" cy="128" r="64" fill="none" stroke="#2a2a2e" stroke-width="44"/><circle cx="128.00" cy="64.00" r="22" fill="#00FF88"/><path d="M128.00 64.00A64 64 0 0 1 136.42 64.56" stroke="#00ff88" stroke-width="44" fill="none"/><path d="M134.25 64.31A64 64 0 0 1 142.57 65.68" stroke="#06ff85" stroke-width="44" fill="none"/><path d="M140.43 65.22A64 64 0 0 1 148.58 67.40" stroke="#0bff82" stroke-width="44" fill="none"/><path d="M146.50 66.73A64 64 0 0 1 154.40 69.70" stroke="#11ff7f" stroke-width="44" fill="none"/><path d="M152.39 68.83A64 64 0 0 1 159.96 72.55" stroke="#16ff7c" stroke-width="44" fill="none"/><path d="M158.05 71.49A64 64 0 0 1 165.22 75.94" stroke="#1cff79" stroke-width="44" fill="none"/><path d="M163.42 74.69A64 64 0 0 1 170.12 79.82" stroke="#21ff75" stroke-width="44" fill="none"/><path d="M168.45 78.40A64 64 0 0 1 174.62 84.16" stroke="#27ff72" stroke-width="44" fill="none"/><path d="M173.10 82.59A64 64 0 0 1 178.68 88.92" stroke="#2cff6f" stroke-width="44" fill="none"/><path d="M177.31 87.20A64 64 0 0 1 182.25 94.05" stroke="#32ff6c" stroke-width="44" fill="none"/><path d="M181.06 92.21A64 64 0 0 1 185.31 99.50" stroke="#37ff69" stroke-width="44" fill="none"/><path d="M184.30 97.56A64 64 0 0 1 187.81 105.23" stroke="#3dff66" stroke-width="44" fill="none"/><path d="M187.00 103.20A64 64 0 0 1 189.75 111.18" stroke="#42ff63" stroke-width="44" fill="none"/><path d="M189.14 109.07A64 64 0 0 1 191.10 117.28" stroke="#48ff60" stroke-width="44" fill="none"/><path d="M190.69 115.13A64 64 0 0 1 191.84 123.49" stroke="#4dff5d" stroke-width="44" fill="none"/><path d="M191.65 121.31A64 64 0 0 1 191.98 129.74" stroke="#53ff5a" stroke-width="44" fill="none"/><path d="M192.00 127.55A64 64 0 0 1 191.50 135.98" stroke="#58ff57" stroke-width="44" fill="none"/><path d="M191.74 133.80A64 64 0 0 1 190.42 142.14" stroke="#5eff53" stroke-width="44" fill="none"/><path d="M190.87 139.99A64 64 0 0 1 188.74 148.16" stroke="#63ff50" stroke-width="44" fill="none"/><path d="M189.40 146.07A64 64 0 0 1 186.49 153.99" stroke="#69ff4d" stroke-width="44" fill="none"/><path d="M187.34 151.97A64 64 0 0 1 183.67 159.57" stroke="#6eff4a" stroke-width="44" fill="none"/><path d="M184.72 157.65A64 64 0 0 1 180.32 164.86" stroke="#74ff47" stroke-width="44" fill="none"/><path d="M181.55 163.04A64 64 0 0 1 176.48 169.79" stroke="#79ff44" stroke-width="44" fill="none"/><path d="M177.88 168.10A64 64 0 0 1 172.17 174.32" stroke="#7fff41" stroke-width="44" fill="none"/><path d="M173.73 172.78A64 64 0 0 1 167.44 178.41" stroke="#84ff3e" stroke-width="44" fill="none"/><path d="M169.14 177.03A64 64 0 0 1 162.33 182.01" stroke="#8aff3b" stroke-width="44" fill="none"/><path d="M164.16 180.81A64 64 0 0 1 156.90 185.11" stroke="#8fff38" stroke-width="44" fill="none"/><path d="M158.83 184.08A64 64 0 0 1 151.19 187.65" stroke="#95ff35" stroke-width="44" fill="none"/><path d="M153.21 186.82A64 64 0 0 1 145.25 189.63" stroke="#9aff31" stroke-width="44" fill="none"/><path d="M147.35 189.00A64 64 0 0 1 139.16 191.02" stroke="#a0ff2e" stroke-width="44" fill="none"/><path d="M141.31 190.60A64 64 0 0 1 132.95 191.81" stroke="#a5ff2b" stroke-width="44" fill="none"/><path d="M135.13 191.60A64 64 0 0 1 126.70 191.99" stroke="#abff28" stroke-width="44" fill="none"/><path d="M128.89 191.99A64 64 0 0 1 120.47 191.56" stroke="#b0ff25" stroke-width="44" fill="none"/><path d="M122.64 191.78A64 64 0 0 1 114.30 190.52" stroke="#b6ff22" stroke-width="44" fill="none"/><path d="M116.45 190.95A64 64 0 0 1 108.27 188.88" stroke="#bbff1f" stroke-width="44" fill="none"/><path d="M110.36 189.52A64 64 0 0 1 102.42 186.67" stroke="#c1ff1c" stroke-width="44" fill="none"/><path d="M104.44 187.51A64 64 0 0 1 96.82 183.89" stroke="#c6ff19" stroke-width="44" fill="none"/><path d="M98.75 184.92A64 64 0 0 1 91.51 180.58" stroke="#ccff16" stroke-width="44" fill="none"/><path d="M93.33 181.80A64 64 0 0 1 86.55 176.77" stroke="#d1ff13" stroke-width="44" fill="none"/><path d="M88.25 178.16A64 64 0 0 1 81.99 172.49" stroke="#d7ff0f" stroke-width="44" fill="none"/><path d="M83.54 174.04A64 64 0 0 1 77.87 167.79" stroke="#dcff0c" stroke-width="44" fill="none"/><path d="M79.26 169.48A64 64 0 0 1 74.23 162.71" stroke="#e2ff09" stroke-width="44" fill="none"/><path d="M75.45 164.53A64 64 0 0 1 71.10 157.29" stroke="#e7ff06" stroke-width="44" fill="none"/><path d="M72.13 159.22A64 64 0 0 1 68.51 151.60" stroke="#edff03" stroke-width="44" fill="none"/><path d="M69.35 153.62A64 64 0 0 1 67.13 147.78" stroke="#f2ff00" stroke-width="44" fill="none"/><circle cx="67.13" cy="147.78" r="22" fill="#F2FF00"/><rect x="16.75" y="16.75" width="222.5" height="222.5" rx="55.25" fill="none" stroke="#ffffff" stroke-opacity=".16" stroke-width="1.5"/></svg>